<?xml version="1.0" encoding="UTF-8"?>
<svg width="12px" height="15px" viewBox="0 0 12 15" version="1.1" xmlns="http://www.w3.org/2000/svg" xmlns:xlink="http://www.w3.org/1999/xlink">
    <!-- Generator: Sketch 47.1 (45422) - http://www.bohemiancoding.com/sketch -->
    <title>icons gray/map-gray</title>
    <desc>Created with Sketch.</desc>
    <defs></defs>
    <g id="Header-and-footer---desktop" stroke="none" stroke-width="1" fill="none" fill-rule="evenodd">
        <g id="footer-light-gray" transform="translate(-79.000000, -535.000000)" stroke="#787E89">
            <g id="icons-gray/map-gray" transform="translate(80.000000, 536.000000)">
                <g id="map-icon">
                    <path d="M5,7 C6.10285714,7 7,6.10257143 7,5 C7,3.89742857 6.10285714,3 5,3 C3.89714286,3 3,3.89742857 3,5 C3,6.10257143 3.89714286,7 5,7 Z" id="Shape" fill-rule="nonzero"></path>
                    <path d="M1.4708599,1.43033528 C2.41385704,0.508051906 3.66721503,0 5.00048804,0 C6.33376104,0 7.58711903,0.508051906 8.53011618,1.43033528 C10.2882464,3.1500924 10.5047435,6.38775054 8.98723005,8.36707755 L5.00048804,14 L1.00735283,8.35854842 C-0.503767406,6.38775054 -0.286979773,3.1500924 1.4708599,1.43033528 Z" id="Shape" fill-rule="nonzero"></path>
                </g>
            </g>
        </g>
    </g>
</svg>